<svg width="14" height="18" viewBox="0 0 14 18" fill="none" xmlns="http://www.w3.org/2000/svg">
<path d="M7 0C5.14348 0 3.36301 0.737498 2.05025 2.05025C0.737498 3.36301 0 5.14348 0 7C0 11.725 6.16875 17.0625 6.43125 17.29C6.58974 17.4256 6.79144 17.5001 7 17.5001C7.20856 17.5001 7.41026 17.4256 7.56875 17.29C7.875 17.0625 14 11.725 14 7C14 5.14348 13.2625 3.36301 11.9497 2.05025C10.637 0.737498 8.85652 0 7 0ZM7 15.4437C5.13625 13.6937 1.75 9.9225 1.75 7C1.75 5.60761 2.30312 4.27226 3.28769 3.28769C4.27226 2.30312 5.60761 1.75 7 1.75C8.39239 1.75 9.72775 2.30312 10.7123 3.28769C11.6969 4.27226 12.25 5.60761 12.25 7C12.25 9.9225 8.86375 13.7025 7 15.4437ZM7 3.5C6.30777 3.5 5.63108 3.70527 5.0555 4.08986C4.47993 4.47444 4.03133 5.02107 3.76642 5.66061C3.50151 6.30015 3.4322 7.00388 3.56725 7.68282C3.7023 8.36175 4.03564 8.98539 4.52513 9.47487C5.01461 9.96436 5.63825 10.2977 6.31718 10.4327C6.99612 10.5678 7.69985 10.4985 8.33939 10.2336C8.97893 9.96867 9.52556 9.52007 9.91014 8.9445C10.2947 8.36892 10.5 7.69223 10.5 7C10.5 6.07174 10.1313 5.1815 9.47487 4.52513C8.8185 3.86875 7.92826 3.5 7 3.5ZM7 8.75C6.65388 8.75 6.31554 8.64736 6.02775 8.45507C5.73997 8.26278 5.51566 7.98947 5.38321 7.6697C5.25076 7.34993 5.2161 6.99806 5.28363 6.65859C5.35115 6.31913 5.51782 6.00731 5.76256 5.76256C6.00731 5.51782 6.31913 5.35115 6.65859 5.28363C6.99806 5.2161 7.34993 5.25076 7.6697 5.38321C7.98947 5.51566 8.26278 5.73997 8.45507 6.02775C8.64736 6.31554 8.75 6.65388 8.75 7C8.75 7.46413 8.56563 7.90925 8.23744 8.23744C7.90925 8.56563 7.46413 8.75 7 8.75Z" fill="black"/>
</svg>
