<svg width="14" height="17" viewBox="0 0 14 17" fill="none" xmlns="http://www.w3.org/2000/svg">
<path d="M7 8.04419C6.20448 8.0443 5.4268 7.8085 4.7653 7.36661C4.10379 6.92472 3.58819 6.2966 3.28368 5.56166C2.97917 4.82673 2.89944 4.01801 3.05457 3.23776C3.20971 2.45751 3.59273 1.74079 4.15521 1.17824C4.71769 0.615685 5.43435 0.232563 6.21458 0.0773253C6.9948 -0.0779125 7.80354 0.00170653 8.53851 0.306113C9.27349 0.61052 9.90168 1.12604 10.3437 1.78748C10.7856 2.44892 11.0215 3.22658 11.0215 4.0221C11.0205 5.08841 10.5965 6.11078 9.84257 6.86483C9.08862 7.61888 8.06632 8.04303 7 8.04419ZM7 1.1599C6.43376 1.1598 5.8802 1.32761 5.40934 1.64214C4.93848 1.95666 4.57147 2.40375 4.35473 2.92687C4.13799 3.44999 4.08125 4.02563 4.19169 4.581C4.30213 5.13637 4.57479 5.64651 4.97519 6.04691C5.37558 6.4473 5.88572 6.71996 6.44109 6.8304C6.99646 6.94084 7.57211 6.88411 8.09523 6.66736C8.61835 6.45062 9.06544 6.08361 9.37996 5.61275C9.69448 5.14189 9.8623 4.58834 9.86219 4.0221C9.86132 3.26326 9.55949 2.53576 9.02291 1.99918C8.48633 1.46261 7.75883 1.16078 7 1.1599ZM13.4203 16.6582H0.579677L0 16.0785C-1.36979e-08 15.1593 0.18106 14.249 0.532843 13.3997C0.884626 12.5504 1.40024 11.7788 2.05025 11.1288C2.70026 10.4787 3.47194 9.96313 4.32122 9.61135C5.17049 9.25956 6.08075 9.0785 7 9.0785C7.91925 9.0785 8.8295 9.25956 9.67878 9.61135C10.5281 9.96313 11.2997 10.4787 11.9497 11.1288C12.5998 11.7788 13.1154 12.5504 13.4672 13.3997C13.8189 14.249 14 15.1593 14 16.0785L13.4203 16.6582ZM1.18678 15.4988H12.8132C12.6715 14.0554 11.9978 12.7164 10.9233 11.7423C9.84881 10.7681 8.45034 10.2286 7 10.2286C5.54966 10.2286 4.15119 10.7681 3.0767 11.7423C2.0022 12.7164 1.32854 14.0554 1.18678 15.4988Z" fill="#231F20"/>
</svg>
