<svg width="15" height="14" viewBox="0 0 15 14" fill="none" xmlns="http://www.w3.org/2000/svg">
<path d="M12.3005 7.72229C12.1455 7.72229 11.9834 7.67297 11.8284 7.63775C11.5145 7.56857 11.206 7.47674 10.9054 7.36296C10.5786 7.24405 10.2193 7.25023 9.8967 7.3803C9.57412 7.51037 9.31105 7.75515 9.1581 8.06753L9.00309 8.38459C8.31684 8.00284 7.68624 7.5287 7.12894 6.97545C6.57569 6.41815 6.10155 5.78755 5.7198 5.1013L6.01572 4.90402C6.3281 4.75107 6.57288 4.48799 6.70295 4.16541C6.83303 3.84284 6.8392 3.48355 6.72029 3.15669C6.60842 2.85543 6.51663 2.5471 6.44551 2.23371C6.41028 2.0787 6.3821 1.91665 6.36096 1.7546C6.2754 1.25831 6.01546 0.808886 5.62794 0.487249C5.24043 0.165612 4.75081 -0.00709771 4.24726 0.000223562H2.13355C1.8299 -0.0026275 1.52921 0.0599804 1.25193 0.183785C0.974655 0.30759 0.72731 0.489684 0.526734 0.717673C0.326157 0.945661 0.177059 1.21419 0.0895896 1.50498C0.00211983 1.79577 -0.0216679 2.10199 0.0198457 2.4028C0.395196 5.35451 1.74324 8.09704 3.85104 10.1972C5.95885 12.2973 8.70626 13.6354 11.6593 14H11.9271C12.4466 14.0008 12.9483 13.8101 13.3362 13.4645C13.5591 13.2652 13.7371 13.0208 13.8586 12.7475C13.9801 12.4742 14.0421 12.1783 14.0408 11.8792V9.76554C14.0321 9.27614 13.8539 8.8049 13.5365 8.43226C13.2191 8.05963 12.7823 7.80869 12.3005 7.72229ZM12.6528 11.9497C12.6526 12.0497 12.6312 12.1486 12.5899 12.2397C12.5486 12.3308 12.4884 12.4121 12.4132 12.4781C12.3345 12.5461 12.2424 12.5969 12.1429 12.6272C12.0434 12.6575 11.9387 12.6668 11.8355 12.6543C9.19678 12.3159 6.74582 11.1088 4.86919 9.22323C2.99256 7.33767 1.79706 4.88101 1.47126 2.24075C1.46004 2.13754 1.46987 2.03314 1.50015 1.93383C1.53042 1.83453 1.58051 1.7424 1.6474 1.66301C1.71342 1.58785 1.7947 1.52762 1.88581 1.48631C1.97692 1.44501 2.07579 1.42358 2.17583 1.42345H4.28953C4.45337 1.41981 4.61337 1.47339 4.74196 1.57498C4.87056 1.67658 4.95972 1.81982 4.9941 1.98006C5.02228 2.17264 5.05751 2.36288 5.09978 2.55076C5.18118 2.92217 5.2895 3.28716 5.42389 3.64284L4.43749 4.10081C4.35315 4.13951 4.27729 4.19448 4.21425 4.26258C4.15122 4.33067 4.10226 4.41055 4.07018 4.49762C4.0381 4.58469 4.02354 4.67724 4.02732 4.76996C4.03111 4.86267 4.05318 4.95372 4.09225 5.03789C5.10627 7.2099 6.85222 8.95585 9.02423 9.96987C9.19577 10.0403 9.38817 10.0403 9.5597 9.96987C9.64757 9.93844 9.72832 9.88986 9.79726 9.82697C9.8662 9.76408 9.92196 9.68811 9.96131 9.60349L10.3981 8.61709C10.7624 8.74735 11.1341 8.85558 11.5114 8.9412C11.6992 8.98347 11.8895 9.0187 12.0821 9.04688C12.2423 9.08126 12.3855 9.17042 12.4871 9.29902C12.5887 9.42761 12.6423 9.58761 12.6387 9.75145L12.6528 11.9497Z" fill="black"/>
</svg>
